<?xml version="1.0" encoding="utf-8"?>
<!-- Generator: Adobe Illustrator 19.1.0, SVG Export Plug-In . SVG Version: 6.00 Build 0)  -->
<svg version="1.1" id="Layer_1" xmlns="http://www.w3.org/2000/svg" xmlns:xlink="http://www.w3.org/1999/xlink" x="0px" y="0px"
	 viewBox="0 0 92.1 101.5" style="enable-background:new 0 0 92.1 101.5;" xml:space="preserve">
<style type="text/css">
	.st0{fill:#FFFFFF;}
</style>
<g>
	<path class="st0" d="M18.4,82.3c0-1.1-0.6-1.6-1.7-1.6h-2.4V84h2.5C17.8,84,18.4,83.4,18.4,82.3z"/>
	<path class="st0" d="M18.1,85.9c-0.4-0.3-0.8-0.4-1.4-0.4h-2.5V89h2.6c0.6,0,1.1-0.1,1.4-0.4c0.3-0.3,0.5-0.7,0.5-1.3
		C18.6,86.6,18.5,86.2,18.1,85.9z"/>
	<path class="st0" d="M80.1,70H0v25.7v1.7v4.2h4.2h1.5H86l6.1-6.1V58L80.1,70L80.1,70z M16.9,90.6h-4.5V79h4.4
		c1.2,0,2.1,0.2,2.7,0.7c0.6,0.5,0.9,1.2,0.9,2.3c0,0.7-0.1,1.2-0.3,1.6s-0.6,0.7-1,1c1.1,0.4,1.7,1.3,1.7,2.7
		C20.6,89.5,19.3,90.6,16.9,90.6z M29.4,90.6h-1.8v-0.5c-0.8,0.5-1.6,0.7-2.3,0.7c-1.2,0-1.9-0.3-2.3-0.9c-0.4-0.6-0.6-1.7-0.6-3.3
		v-4.4h1.8v4.4c0,1,0.1,1.7,0.3,2c0.2,0.3,0.6,0.5,1.2,0.5c0.6,0,1.2-0.1,1.7-0.3l0.3-0.1v-6.6h1.8V90.6z M33.5,90.6h-1.8v-8.4h1.8
		V90.6z M33.5,80.7h-1.8v-1.9h1.8V80.7z M37.7,90.6h-1.8v-12h1.8V90.6z M42.9,90.8c-1,0-1.6-0.2-2-0.7c-0.4-0.4-0.5-1.3-0.5-2.5
		v-3.9h-1.1v-1.6h1.1v-2.5h1.8v2.5h2.3v1.6h-2.3v3.7c0,0.7,0.1,1.1,0.2,1.4c0.1,0.2,0.4,0.3,0.8,0.3l1.4-0.1l0.1,1.5
		C43.9,90.7,43.3,90.8,42.9,90.8z M59.4,90.6h-2.9l-1.3-5.8l-1.3,5.8h-2.9l-1.8-8.4h1.8l1.3,6.9h0.3l1.6-6.7h1.9l1.6,6.7H58l1.3-6.9
		h1.8L59.4,90.6z M64.6,90.6h-1.8v-8.4h1.8V90.6z M64.6,80.7h-1.8v-1.9h1.8V80.7z M69.7,90.8c-1,0-1.6-0.2-2-0.7
		c-0.4-0.4-0.5-1.3-0.5-2.5v-3.9h-1.1v-1.6h1.1v-2.5H69v2.5h2.3v1.6H69v3.7c0,0.7,0.1,1.1,0.2,1.4c0.1,0.2,0.4,0.3,0.8,0.3l1.4-0.1
		l0.1,1.5C70.7,90.7,70.1,90.8,69.7,90.8z M79.9,90.6h-1.8v-4.5c0-0.9-0.1-1.6-0.3-1.9c-0.2-0.4-0.6-0.6-1.2-0.6
		c-0.5,0-1.1,0.1-1.6,0.3L74.7,84v6.6h-1.8v-12h1.8v4c0.8-0.4,1.6-0.6,2.3-0.6c1.1,0,1.9,0.3,2.3,1c0.4,0.6,0.6,1.7,0.6,3.2V90.6z"
		/>
	<path class="st0" d="M34.3,17.5c-3.7,0-6.2,1.2-7.5,3.6c-1.4,2.4-2,6.3-2,11.5c0,5.3,0.7,9.1,2,11.3c1.3,2.3,3.8,3.4,7.6,3.4
		s6.2-1.1,7.6-3.4c1.3-2.2,2-6,2-11.3c0-5.3-0.7-9.2-2-11.6C40.4,18.7,37.9,17.5,34.3,17.5z"/>
	<path class="st0" d="M83.2,0H80H12.8v0L0,12.8v42.7V59v8.8h8.8h3.2h67.3v0l12.8-12.8V12.3V8.8V0H83.2z M49,58.5l-6,2.8l-5.2-8.5
		c-0.7,0.2-1.9,0.4-3.6,0.4c-6.1,0-10.3-1.6-12.7-4.9c-2.4-3.3-3.6-8.4-3.6-15.5c0-7.1,1.2-12.3,3.6-15.7c2.4-3.4,6.6-5.1,12.6-5.1
		c6,0,10.2,1.7,12.6,5.1c2.4,3.4,3.6,8.6,3.6,15.7c0,4.7-0.5,8.4-1.5,11.3c-1,2.9-2.6,5.1-4.9,6.6L49,58.5z M67.2,52.4
		c-3.3,0-5.6-0.8-6.8-2.3c-1.2-1.5-1.8-4.4-1.8-8.6V28h-4.5v-5.4h4.5v-8.5h6.3v8.5h8V28h-8v12.8c0,2.4,0.2,3.9,0.5,4.7
		c0.3,0.8,1.2,1.2,2.7,1.2l4.8-0.2l0.3,5.1C70.6,52.1,68.6,52.4,67.2,52.4z"/>
</g>
</svg>
